<svg width="1004" height="213" viewBox="0 0 1004 213" fill="none" xmlns="http://www.w3.org/2000/svg">
  <g fill="#F2EEE7">
    <path d="M159.167 57.9479V57.9271C156.526 29.6615 132.802 8.05731 104.438 8.05731H45.1042V87.3073C45.1042 96.7656 52.7969 104.438 62.2344 104.438H81.7344C100.531 104.438 115.76 89.2084 115.76 70.4063H119.474V142.073H115.76C115.76 132.677 111.958 124.161 105.771 118.016C99.6198 111.87 91.0885 108.026 81.6875 108.026H62.2135C52.7292 108.026 45.0833 115.714 45.0833 125.156V181.234C45.0833 194.141 55.5625 204.594 68.4479 204.594V208.313H0.5625V204.573C7.00521 204.573 12.875 201.953 17.099 197.729C21.3229 193.505 23.9427 187.677 23.9427 181.193V31.4584C23.9219 18.5521 13.4427 8.09898 0.5625 8.09898V4.33856H158.234L162.88 57.9479H159.167Z"/>
    <path d="M245.807 204.594H245.828V208.333H177.943V204.594C184.385 204.594 190.234 201.995 194.458 197.75C198.682 193.505 201.302 187.677 201.302 181.234V31.4375C201.302 18.5313 190.849 8.07813 177.943 8.07813V4.35938H245.828V8.07813H245.807C232.901 8.07813 222.443 18.5313 222.443 31.4375V181.234C222.443 194.12 232.901 204.594 245.807 204.594Z"/>
    <path d="M441.729 212.198C441.729 201.344 430.391 194.203 420.609 198.891L415.141 201.51C401.641 208.818 384.766 213.573 365.016 211.797C347.865 210 329.615 205.906 314.875 196.547C300.323 187.063 285.474 176.016 275.292 160.745C265.13 145.604 259.344 125.052 259.24 106.339C259.344 87.5782 265.13 67.0521 275.292 51.9063C285.474 36.6563 300.323 25.5886 314.875 16.125C329.615 6.74483 347.865 2.67192 364.995 0.895874C402.594 -2.29163 432.141 19.3334 432.141 19.3334L432.292 20.6667L442.198 72.224L438.542 72.9219L438.182 71.1042C422.656 21.9323 400.375 7.95317 381.047 4.55212C371.651 2.88025 362.016 3.68233 352.807 6.15629C348.328 7.35942 343.937 8.83858 339.693 10.6355C332.448 13.6771 325.604 17.5417 319.328 22.125C306.068 32.0938 298 46.1407 292.318 60.9011C286.844 75.8594 284.458 91.1094 284.458 106.359C284.458 121.609 286.844 136.859 292.318 151.813C298 166.552 306.088 180.599 319.328 190.594C331.875 199.76 346.724 206.031 362.375 208.63C365.016 208.969 367.635 209.135 370.255 209.135C373.276 209.135 376.297 208.906 379.297 208.438C393.172 206.266 413.469 198.531 421.536 172.724C423.547 166.365 424.37 159.688 424.37 153.037V121.776L358.573 105.807H445.406V212.198H441.729Z"/>
    <path d="M573.318 87.5156L548.292 20.349L494.896 165.88C492.953 171.182 499.563 175.427 503.578 171.411L569.37 105.62C574.12 100.865 575.641 93.7917 573.297 87.4948M660.724 204.594V208.313H588.906V204.594C602.51 204.594 611.932 191.057 607.177 178.297L584.896 118.568C581.958 110.667 571.818 108.448 565.865 114.427L498 182.271C495.484 184.74 494.281 188.036 494.281 191.245C494.281 195.177 496.078 199.083 499.583 201.594C500.958 202.568 502.458 203.328 504.042 203.833C505.625 204.344 507.292 204.594 508.984 204.594V208.313H458.969V204.594C469.635 204.594 479.203 197.943 482.854 187.906L540.646 30.5938C541.318 28.6719 541.677 26.7083 541.677 24.8073C541.677 15.9323 534.5 8.09896 524.906 8.09896V4.35938H569.771L638.203 188.922C639.938 193.609 643.083 197.563 647.016 200.307C650.943 203.052 655.714 204.615 660.745 204.615"/>
    <path d="M757.25 8.05731H741.807V181.234C741.807 194.12 752.266 204.594 765.167 204.594V208.313H697.219V204.594C703.661 204.594 709.536 201.974 713.76 197.75C717.984 193.526 720.604 187.656 720.604 181.214V8.05731H705.161C677.448 8.79689 654.531 30.1511 651.932 57.9063V57.9271H648.219L649.505 42.9271L652.865 4.33856H809.526L812.88 42.9271L814.172 57.9271H810.474C807.875 30.1511 784.958 8.81773 757.25 8.05731Z"/>
    <path d="M916.021 87.5156L890.989 20.349L837.594 165.88C835.651 171.182 842.26 175.427 846.276 171.411L912.073 105.62C916.823 100.865 918.344 93.7917 916 87.4948M1003.42 204.594V208.313H931.609V204.594C945.208 204.594 954.63 191.057 949.88 178.297L927.594 118.568C924.661 110.667 914.521 108.448 908.562 114.427L840.698 182.271C838.187 184.74 836.984 188.036 836.984 191.245C836.984 195.177 838.776 199.083 842.286 201.594C843.656 202.568 845.156 203.328 846.739 203.833C848.323 204.344 849.995 204.594 851.682 204.594V208.313H801.667V204.594C812.333 204.594 821.901 197.943 825.557 187.906L883.323 30.5729C884 28.651 884.359 26.6875 884.359 24.7865C884.359 15.9115 877.177 8.07813 867.588 8.07813V4.35938H912.453L980.885 188.922C982.614 193.609 985.765 197.563 989.693 200.307C993.62 203.052 998.396 204.615 1003.42 204.615"/>
  </g>
</svg>
