<?xml version="1.0" encoding="iso-8859-1"?>
<!-- Generator: Adobe Illustrator 21.0.0, SVG Export Plug-In . SVG Version: 6.00 Build 0)  -->
<svg version="1.1" id="Capa_1" xmlns="http://www.w3.org/2000/svg" xmlns:xlink="http://www.w3.org/1999/xlink" x="0px" y="0px"
	 viewBox="0 0 467.75 105.69" style="enable-background:new 0 0 467.75 105.69;" xml:space="preserve">
<g>
	<path style="fill:#FFFFFF;" d="M277.61,28.3c-4.03,0-7,3.03-7.08,7.21c-0.06,3.33,2.01,5.32,5.54,5.32c4.03,0,7-3.03,7.08-7.21
		C283.21,30.29,281.13,28.3,277.61,28.3L277.61,28.3z"/>
	<path style="fill:#FFFFFF;" d="M248.18,60.56c-0.22,1.26-0.62,2.43-1.19,3.49c-0.57,1.05-1.28,1.98-2.11,2.76
		c-0.82,0.77-1.76,1.38-2.8,1.81c-1.95,0.81-4.36,0.86-6.13,0.14c-0.82-0.34-1.54-0.83-2.13-1.46c-0.59-0.63-1.03-1.41-1.32-2.3
		c-0.3-0.92-0.42-1.95-0.36-3.09c0.07-1.37,0.37-2.68,0.9-3.9c0.52-1.22,1.23-2.3,2.08-3.21c0.85-0.9,1.86-1.63,3-2.16
		c1.12-0.53,2.34-0.79,3.61-0.79c1.11,0,2.13,0.21,3.02,0.62c0.88,0.41,1.63,1,2.21,1.74c0.58,0.75,0.99,1.67,1.21,2.72
		C248.41,58,248.41,59.23,248.18,60.56L248.18,60.56z M265.14,29.99c-0.15-0.18-0.37-0.29-0.61-0.29h-8.83
		c-0.37,0-0.7,0.27-0.77,0.63c0,0-3.41,16.91-3.62,18.09c-2.22-3.91-6.56-6.32-11.96-6.32c-10.74,0-18.54,8.64-18.54,20.55
		c0,9.8,5.89,16.38,14.66,16.38c4.21,0,7.91-1.68,10.67-4.74c-0.18,0.84-0.36,1.73-0.55,2.75c-0.04,0.23,0.02,0.46,0.17,0.64
		c0.15,0.18,0.37,0.28,0.6,0.28l8.82-0.01c0.38,0,0.7-0.27,0.77-0.63l9.36-46.69C265.35,30.41,265.29,30.17,265.14,29.99
		L265.14,29.99z"/>
	<path style="fill:#FFFFFF;" d="M278.99,45.91h-9.12c-0.39,0-0.72,0.24-0.79,0.58l-6.17,30.61c-0.05,0.21,0.02,0.43,0.17,0.6
		c0.15,0.17,0.38,0.26,0.62,0.26h9.12c0.39,0,0.72-0.25,0.8-0.59l6.17-30.61c0.05-0.21-0.02-0.43-0.17-0.6
		C279.47,46.01,279.24,45.91,278.99,45.91L278.99,45.91z"/>
	<path style="fill:#FFFFFF;" d="M160.02,51.66c0,0-8.83,0.05-9.1,0.05c0.06-0.28,2.35-11.63,2.42-12.11
		c0.44,0.02,8.44,0.08,8.44,0.08c4.03,0,6.25,1.88,6.25,5.29C168.03,49.23,165.11,51.66,160.02,51.66L160.02,51.66z M146.23,75.19
		c0.93-4.13,2.64-13.31,2.69-13.55c0.41,0,10.73,0.07,10.73,0.07c12.32,0,19.97-6.58,19.97-17.18c0-9.29-6.37-14.83-17.03-14.83
		h-18.32c-0.38,0-0.71,0.27-0.79,0.65l-9.29,46.4c-0.04,0.23,0.04,0.48,0.19,0.66c0.15,0.18,0.38,0.29,0.62,0.29h3.62l4.55-0.03
		C143.18,77.67,145.66,77.7,146.23,75.19L146.23,75.19z"/>
	<path style="fill:#FFFFFF;" d="M344.21,68.63c-4.53,0-7.24-2.56-7.24-6.83c0-5.37,3.76-9.27,8.93-9.27c4.53,0,7.24,2.56,7.24,6.83
		C353.14,64.73,349.38,68.63,344.21,68.63L344.21,68.63z M346.6,42.11c-11.99,0-20.7,8.55-20.7,20.34c0,10.08,6.91,16.6,17.61,16.6
		c11.99,0,20.7-8.55,20.7-20.34C364.2,48.62,357.29,42.11,346.6,42.11L346.6,42.11z"/>
	<path style="fill:#FFFFFF;" d="M310.4,60.56c-0.22,1.26-0.62,2.43-1.19,3.49c-0.57,1.05-1.28,1.98-2.11,2.76
		c-0.82,0.77-1.76,1.38-2.8,1.81c-1.95,0.81-4.36,0.86-6.13,0.14c-0.82-0.34-1.54-0.83-2.13-1.46c-0.59-0.63-1.03-1.41-1.32-2.3
		c-0.3-0.92-0.42-1.95-0.36-3.09c0.07-1.37,0.37-2.68,0.9-3.9c0.52-1.22,1.22-2.3,2.08-3.21c0.85-0.9,1.86-1.63,3-2.16
		c1.12-0.53,2.34-0.79,3.61-0.79c1.11,0,2.13,0.21,3.02,0.62c0.88,0.41,1.63,1,2.21,1.74c0.58,0.75,0.99,1.67,1.21,2.72
		C310.62,58,310.62,59.23,310.4,60.56L310.4,60.56z M327.21,29.99c-0.15-0.18-0.37-0.29-0.6-0.29h-8.84c-0.37,0-0.7,0.27-0.77,0.63
		c0,0-3.41,16.91-3.63,18.09c-2.22-3.91-6.56-6.32-11.96-6.32c-10.74,0-18.54,8.64-18.54,20.55c0,9.8,5.89,16.38,14.66,16.38
		c4.21,0,7.91-1.68,10.67-4.74c-0.18,0.84-0.36,1.73-0.55,2.75c-0.04,0.23,0.02,0.46,0.17,0.64c0.15,0.18,0.37,0.28,0.6,0.28
		l8.82-0.01c0.38,0,0.7-0.27,0.77-0.63l9.36-46.69C327.42,30.41,327.35,30.17,327.21,29.99L327.21,29.99z"/>
	<path style="fill:#FFFFFF;" d="M393.34,44.79c-4.6-2.1-9.33-3.01-13.66-2.63c-7.59,0.67-11.94,5.19-11.36,11.81
		c0.35,3.99,2.63,7.06,6.99,9.36l4.8,2.51c1.96,1.05,2.15,1.54,2.2,2.16c0.13,1.43-1.51,1.79-2.49,1.87
		c-3,0.26-6.66-0.87-10.57-3.29c-0.18-0.11-0.4-0.14-0.6-0.09c-0.21,0.05-0.38,0.19-0.49,0.37l-3.85,6.79
		c-0.2,0.35-0.1,0.8,0.24,1.03c4.78,3.26,10.28,4.72,15.92,4.23c8.45-0.74,12.94-5.21,12.32-12.26c-0.37-4.25-2.42-6.94-7.06-9.29
		l-4.33-2.19c-2.54-1.39-2.67-1.74-2.73-2.41c-0.03-0.37-0.13-1.5,2.3-1.71c2.41-0.21,5.57,0.52,8.67,2c0.19,0.09,0.41,0.1,0.6,0.03
		c0.2-0.07,0.36-0.22,0.44-0.41l3.05-6.86C393.9,45.42,393.73,44.97,393.34,44.79L393.34,44.79z"/>
	<path style="fill:#FFFFFF;" d="M441.06,31.09c-0.14-0.29-0.44-0.47-0.76-0.47h-12.48c-0.28,0-0.55,0.14-0.71,0.38
		c0,0-12.39,17.57-13.26,19.26c-0.24-1.59-6.32-18.99-6.32-18.99c-0.11-0.36-0.44-0.61-0.82-0.61h-10.92c-0.28,0-0.53,0.13-0.7,0.36
		c-0.16,0.23-0.2,0.51-0.11,0.77l11.58,29.33l-3.47,17.05c-0.05,0.25,0.02,0.51,0.18,0.7c0.16,0.2,0.4,0.31,0.66,0.31h8.84
		c1.16,0,2.16-0.82,2.38-1.96l3.09-15.81l22.75-29.42C441.17,31.72,441.2,31.38,441.06,31.09L441.06,31.09z"/>
	<path style="fill:#FFFFFF;" d="M454.25,61.49c-0.21,1.2-0.59,2.32-1.14,3.33c-0.54,1.01-1.22,1.89-2.01,2.63
		c-0.78,0.73-1.68,1.31-2.67,1.73c-1.86,0.77-4.16,0.82-5.85,0.13c-0.79-0.32-1.47-0.79-2.03-1.39c-0.56-0.6-0.98-1.34-1.26-2.2
		c-0.28-0.87-0.4-1.86-0.34-2.95c0.07-1.31,0.36-2.56,0.86-3.72c0.5-1.16,1.17-2.19,1.99-3.06c0.81-0.86,1.77-1.55,2.86-2.06
		c1.07-0.5,2.23-0.76,3.45-0.76c1.07,0,2.03,0.2,2.88,0.59c0.84,0.39,1.55,0.95,2.11,1.66c0.56,0.71,0.95,1.59,1.16,2.6
		C454.46,59.05,454.46,60.22,454.25,61.49L454.25,61.49z M467.57,44.39c-0.15-0.18-0.36-0.28-0.59-0.28h-8.61
		c-0.36,0-0.68,0.26-0.75,0.62c0,0-0.33,1.64-0.53,2.79l-0.01,0.04c-1.95-2.36-4.99-3.8-7.99-3.99c-2.75-0.17-5.42,0.27-7.99,1.25
		c-8.47,3.23-14.11,11.55-14.02,20.68c0.08,7.94,5.27,13.27,13.18,13.65c4.25,0.2,7.95-1.07,11.31-3.93
		c-0.18,0.85-0.4,1.96-0.54,2.73c-0.04,0.22,0.02,0.45,0.17,0.62c0.14,0.17,0.36,0.27,0.59,0.27l8.59-0.01
		c0.36,0,0.68-0.26,0.75-0.62l6.61-33.2C467.78,44.8,467.72,44.57,467.57,44.39L467.57,44.39z"/>
	<path style="fill:#FFFFFF;" d="M191.53,55.76c1.63-3.91,4.58-5.93,8.97-5.93c4.47,0,6.71,2.03,6.85,5.97
		C206.64,55.8,192.29,55.76,191.53,55.76L191.53,55.76z M200.71,42.07c-11.78,0-20.34,8.58-20.34,20.41
		c0,10.19,6.86,16.53,17.89,16.53c5,0,9.14-1.28,13.5-4.19c0.39-0.26,0.45-0.82,0.12-1.16l-5.43-5.61c-0.23-0.24-0.6-0.29-0.89-0.13
		c-2.37,1.26-4.61,1.83-7.08,1.83c-5.06,0-7.99-2.31-8.06-6.33l24.74-0.08c0.37,0,0.69-0.26,0.77-0.61
		c0.56-2.51,0.88-4.35,0.88-6.28C216.81,47.58,210.64,42.07,200.71,42.07L200.71,42.07z"/>
	<path style="fill:#E91F3B;" d="M72.96,0.06h-1.24L66.13,0H1.84C0.82,0,0,0.82,0,1.84v10.19c0,11.18,7.89,17.34,22.22,17.34
		l50.74,0.1c5.36,0,9.71,4.35,9.71,9.71c0,5.36-4.35,9.71-9.71,9.71H16.06c-0.83,0-1.55,0.56-1.76,1.37L0.84,103.43
		c-0.14,0.54-0.02,1.12,0.33,1.56c0.34,0.44,0.87,0.7,1.43,0.7h18.04c6.76,0,10.01-5.61,10.77-8.55l5.31-19.33h36.24
		c21.44,0,38.88-17.44,38.88-38.88C111.84,17.5,94.4,0.06,72.96,0.06L72.96,0.06z"/>
</g>
</svg>
