<?xml version="1.0" standalone="no"?>
<svg xmlns="http://www.w3.org/2000/svg" width="300" height="300" xmlns:xlink="http://www.w3.org/1999/xlink" viewBox="0 0 300 300"><defs><clipPath id="clip-path-background-color-7"><rect x="0" y="0" width="300" height="300"/></clipPath><clipPath id="clip-path-dot-color-7"><path d="M 120 0v 12h 12v -6a 6 6, 0, 0, 0, -6 -6" transform="rotate(-90,126,6)"/><path d="M 156 0v 12h 12v -6a 6 6, 0, 0, 0, -6 -6" transform="rotate(-90,162,6)"/><rect x="168" y="0" width="12" height="12" transform="rotate(0,174,6)"/><rect x="180" y="0" width="12" height="12" transform="rotate(0,186,6)"/><path d="M 96 12v 12h 12v -6a 6 6, 0, 0, 0, -6 -6" transform="rotate(-90,102,18)"/><rect x="108" y="12" width="12" height="12" transform="rotate(0,114,18)"/><path d="M 120 12v 12h 12v -6a 6 6, 0, 0, 0, -6 -6" transform="rotate(90,126,18)"/><rect x="156" y="12" width="12" height="12" transform="rotate(0,162,18)"/><rect x="168" y="12" width="12" height="12" transform="rotate(0,174,18)"/><rect x="180" y="12" width="12" height="12" transform="rotate(0,186,18)"/><path d="M 96 24v 12h 12v -6a 6 6, 0, 0, 0, -6 -6" transform="rotate(90,102,30)"/><rect x="168" y="24" width="12" height="12" transform="rotate(0,174,30)"/><rect x="180" y="24" width="12" height="12" transform="rotate(0,186,30)"/><path d="M 192 24v 12h 12v -6a 6 6, 0, 0, 0, -6 -6" transform="rotate(90,198,30)"/><path d="M 108 36v 12h 12v -6a 6 6, 0, 0, 0, -6 -6" transform="rotate(-90,114,42)"/><path d="M 144 36v 12h 12v -6a 6 6, 0, 0, 0, -6 -6" transform="rotate(-90,150,42)"/><rect x="168" y="36" width="12" height="12" transform="rotate(0,174,42)"/><rect x="180" y="36" width="12" height="12" transform="rotate(0,186,42)"/><path d="M 96 48v 12h 12v -6a 6 6, 0, 0, 0, -6 -6" transform="rotate(-90,102,54)"/><rect x="108" y="48" width="12" height="12" transform="rotate(0,114,54)"/><rect x="120" y="48" width="12" height="12" transform="rotate(0,126,54)"/><rect x="144" y="48" width="12" height="12" transform="rotate(0,150,54)"/><rect x="168" y="48" width="12" height="12" transform="rotate(0,174,54)"/><rect x="180" y="48" width="12" height="12" transform="rotate(0,186,54)"/><path d="M 192 48v 12h 12v -6a 6 6, 0, 0, 0, -6 -6" transform="rotate(90,198,54)"/><rect x="96" y="60" width="12" height="12" transform="rotate(0,102,66)"/><rect x="120" y="60" width="12" height="12" transform="rotate(0,126,66)"/><rect x="144" y="60" width="12" height="12" transform="rotate(0,150,66)"/><path d="M 156 60v 12h 12v -6a 6 6, 0, 0, 0, -6 -6" transform="rotate(90,162,66)"/><path d="M 180 60v 12h 12v -6a 6 6, 0, 0, 0, -6 -6" transform="rotate(90,186,66)"/><rect x="96" y="72" width="12" height="12" transform="rotate(0,102,78)"/><rect x="120" y="72" width="12" height="12" transform="rotate(0,126,78)"/><path d="M 144 72v 12h 12v -6a 6 6, 0, 0, 0, -6 -6" transform="rotate(90,150,78)"/><path d="M 168 72v 12h 12v -6a 6 6, 0, 0, 0, -6 -6" transform="rotate(-90,174,78)"/><path d="M 192 72v 6a 6 6, 0, 0, 0, 6 6h 6v -6a 6 6, 0, 0, 0, -6 -6" transform="rotate(90,198,78)"/><path d="M 96 84v 12h 12v -6a 6 6, 0, 0, 0, -6 -6" transform="rotate(90,102,90)"/><rect x="120" y="84" width="12" height="12" transform="rotate(0,126,90)"/><rect x="132" y="84" width="12" height="12" transform="rotate(0,138,90)"/><path d="M 168 84v 12h 12v -6a 6 6, 0, 0, 0, -6 -6" transform="rotate(90,174,90)"/><path d="M 0 96v 12h 12v -6a 6 6, 0, 0, 0, -6 -6" transform="rotate(-90,6,102)"/><rect x="12" y="96" width="12" height="12" transform="rotate(0,18,102)"/><path d="M 36 96v 12h 12v -6a 6 6, 0, 0, 0, -6 -6" transform="rotate(-90,42,102)"/><path d="M 72 96v 12h 12v -6a 6 6, 0, 0, 0, -6 -6" transform="rotate(-90,78,102)"/><rect x="84" y="96" width="12" height="12" transform="rotate(0,90,102)"/><rect x="132" y="96" width="12" height="12" transform="rotate(0,138,102)"/><rect x="144" y="96" width="12" height="12" transform="rotate(0,150,102)"/><path d="M 156 96v 12h 12v -6a 6 6, 0, 0, 0, -6 -6" transform="rotate(90,162,102)"/><path d="M 180 96v 12h 12v -6a 6 6, 0, 0, 0, -6 -6" transform="rotate(-90,186,102)"/><path d="M 192 96v 12h 12v -6a 6 6, 0, 0, 0, -6 -6" transform="rotate(90,198,102)"/><path d="M 216 96v 12h 12v -6a 6 6, 0, 0, 0, -6 -6" transform="rotate(-90,222,102)"/><rect x="228" y="96" width="12" height="12" transform="rotate(0,234,102)"/><path d="M 240 96v 12h 12v -6a 6 6, 0, 0, 0, -6 -6" transform="rotate(90,246,102)"/><path d="M 264 96v 12h 12v -6a 6 6, 0, 0, 0, -6 -6" transform="rotate(-90,270,102)"/><rect x="276" y="96" width="12" height="12" transform="rotate(0,282,102)"/><rect x="0" y="108" width="12" height="12" transform="rotate(0,6,114)"/><rect x="12" y="108" width="12" height="12" transform="rotate(0,18,114)"/><path d="M 36 108v 12h 12v -6a 6 6, 0, 0, 0, -6 -6" transform="rotate(90,42,114)"/><rect x="84" y="108" width="12" height="12" transform="rotate(0,90,114)"/><rect x="96" y="108" width="12" height="12" transform="rotate(0,102,114)"/><path d="M 108 108v 12h 12v -6a 6 6, 0, 0, 0, -6 -6" transform="rotate(90,114,114)"/><rect x="132" y="108" width="12" height="12" transform="rotate(0,138,114)"/><rect x="144" y="108" width="12" height="12" transform="rotate(0,150,114)"/><path d="M 204 108v 12h 12v -6a 6 6, 0, 0, 0, -6 -6" transform="rotate(-90,210,114)"/><rect x="216" y="108" width="12" height="12" transform="rotate(0,222,114)"/><path d="M 252 108v 12h 12v -6a 6 6, 0, 0, 0, -6 -6" transform="rotate(-90,258,114)"/><rect x="276" y="108" width="12" height="12" transform="rotate(0,282,114)"/><rect x="288" y="108" width="12" height="12" transform="rotate(0,294,114)"/><rect x="0" y="120" width="12" height="12" transform="rotate(0,6,126)"/><rect x="12" y="120" width="12" height="12" transform="rotate(0,18,126)"/><path d="M 48 120v 12h 12v -6a 6 6, 0, 0, 0, -6 -6" transform="rotate(-90,54,126)"/><rect x="60" y="120" width="12" height="12" transform="rotate(0,66,126)"/><rect x="72" y="120" width="12" height="12" transform="rotate(0,78,126)"/><rect x="84" y="120" width="12" height="12" transform="rotate(0,90,126)"/><rect x="96" y="120" width="12" height="12" transform="rotate(0,102,126)"/><rect x="132" y="120" width="12" height="12" transform="rotate(0,138,126)"/><rect x="144" y="120" width="12" height="12" transform="rotate(0,150,126)"/><path d="M 192 120v 12h 12v -6a 6 6, 0, 0, 0, -6 -6" transform="rotate(-90,198,126)"/><rect x="204" y="120" width="12" height="12" transform="rotate(0,210,126)"/><rect x="216" y="120" width="12" height="12" transform="rotate(0,222,126)"/><path d="M 240 120v 12h 12v -6a 6 6, 0, 0, 0, -6 -6" transform="rotate(-90,246,126)"/><path d="M 252 120v 12h 12v -6a 6 6, 0, 0, 0, -6 -6" transform="rotate(90,258,126)"/><rect x="276" y="120" width="12" height="12" transform="rotate(0,282,126)"/><rect x="288" y="120" width="12" height="12" transform="rotate(0,294,126)"/><rect x="12" y="132" width="12" height="12" transform="rotate(0,18,138)"/><path d="M 36 132v 12h 12v -6a 6 6, 0, 0, 0, -6 -6" transform="rotate(-90,42,138)"/><rect x="96" y="132" width="12" height="12" transform="rotate(0,102,138)"/><rect x="108" y="132" width="12" height="12" transform="rotate(0,114,138)"/><rect x="120" y="132" width="12" height="12" transform="rotate(0,126,138)"/><rect x="132" y="132" width="12" height="12" transform="rotate(0,138,138)"/><rect x="144" y="132" width="12" height="12" transform="rotate(0,150,138)"/><rect x="156" y="132" width="12" height="12" transform="rotate(0,162,138)"/><path d="M 180 132v 6a 6 6, 0, 0, 0, 6 6h 6v -6a 6 6, 0, 0, 0, -6 -6" transform="rotate(90,186,138)"/><rect x="216" y="132" width="12" height="12" transform="rotate(0,222,138)"/><rect x="228" y="132" width="12" height="12" transform="rotate(0,234,138)"/><path d="M 240 132v 12h 12v -6a 6 6, 0, 0, 0, -6 -6" transform="rotate(90,246,138)"/><rect x="288" y="132" width="12" height="12" transform="rotate(0,294,138)"/><rect x="12" y="144" width="12" height="12" transform="rotate(0,18,150)"/><rect x="24" y="144" width="12" height="12" transform="rotate(0,30,150)"/><rect x="36" y="144" width="12" height="12" transform="rotate(0,42,150)"/><rect x="48" y="144" width="12" height="12" transform="rotate(0,54,150)"/><rect x="60" y="144" width="12" height="12" transform="rotate(0,66,150)"/><path d="M 72 144v 12h 12v -6a 6 6, 0, 0, 0, -6 -6" transform="rotate(90,78,150)"/><rect x="120" y="144" width="12" height="12" transform="rotate(0,126,150)"/><rect x="132" y="144" width="12" height="12" transform="rotate(0,138,150)"/><rect x="156" y="144" width="12" height="12" transform="rotate(0,162,150)"/><path d="M 192 144v 12h 12v -6a 6 6, 0, 0, 0, -6 -6" transform="rotate(-90,198,150)"/><rect x="204" y="144" width="12" height="12" transform="rotate(0,210,150)"/><rect x="216" y="144" width="12" height="12" transform="rotate(0,222,150)"/><path d="M 252 144v 6a 6 6, 0, 0, 0, 6 6h 6v -6a 6 6, 0, 0, 0, -6 -6" transform="rotate(90,258,150)"/><rect x="288" y="144" width="12" height="12" transform="rotate(0,294,150)"/><path d="M 12 156v 12h 12v -6a 6 6, 0, 0, 0, -6 -6" transform="rotate(90,18,162)"/><rect x="48" y="156" width="12" height="12" transform="rotate(0,54,162)"/><path d="M 60 156v 12h 12v -6a 6 6, 0, 0, 0, -6 -6" transform="rotate(90,66,162)"/><path d="M 84 156v 12h 12v -6a 6 6, 0, 0, 0, -6 -6" transform="rotate(-90,90,162)"/><path d="M 108 156v 12h 12v -6a 6 6, 0, 0, 0, -6 -6" transform="rotate(-90,114,162)"/><rect x="132" y="156" width="12" height="12" transform="rotate(0,138,162)"/><path d="M 156 156v 12h 12v -6a 6 6, 0, 0, 0, -6 -6" transform="rotate(90,162,162)"/><rect x="204" y="156" width="12" height="12" transform="rotate(0,210,162)"/><rect x="216" y="156" width="12" height="12" transform="rotate(0,222,162)"/><rect x="228" y="156" width="12" height="12" transform="rotate(0,234,162)"/><path d="M 264 156v 12h 12v -6a 6 6, 0, 0, 0, -6 -6" transform="rotate(-90,270,162)"/><rect x="288" y="156" width="12" height="12" transform="rotate(0,294,162)"/><path d="M 0 168v 6a 6 6, 0, 0, 0, 6 6h 6v -6a 6 6, 0, 0, 0, -6 -6" transform="rotate(90,6,174)"/><path d="M 72 168v 12h 12v -6a 6 6, 0, 0, 0, -6 -6" transform="rotate(-90,78,174)"/><rect x="84" y="168" width="12" height="12" transform="rotate(0,90,174)"/><path d="M 108 168v 12h 12v -6a 6 6, 0, 0, 0, -6 -6" transform="rotate(90,114,174)"/><rect x="132" y="168" width="12" height="12" transform="rotate(0,138,174)"/><path d="M 168 168v 12h 12v -6a 6 6, 0, 0, 0, -6 -6" transform="rotate(-90,174,174)"/><path d="M 192 168v 12h 12v -6a 6 6, 0, 0, 0, -6 -6" transform="rotate(-90,198,174)"/><path d="M 204 168v 12h 12v -6a 6 6, 0, 0, 0, -6 -6" transform="rotate(90,210,174)"/><rect x="228" y="168" width="12" height="12" transform="rotate(0,234,174)"/><path d="M 264 168v 12h 12v -6a 6 6, 0, 0, 0, -6 -6" transform="rotate(90,270,174)"/><path d="M 288 168v 12h 12v -6a 6 6, 0, 0, 0, -6 -6" transform="rotate(90,294,174)"/><path d="M 12 180v 12h 12v -6a 6 6, 0, 0, 0, -6 -6" transform="rotate(-90,18,186)"/><rect x="24" y="180" width="12" height="12" transform="rotate(0,30,186)"/><path d="M 36 180v 12h 12v -6a 6 6, 0, 0, 0, -6 -6" transform="rotate(90,42,186)"/><path d="M 60 180v 12h 12v -6a 6 6, 0, 0, 0, -6 -6" transform="rotate(-90,66,186)"/><rect x="84" y="180" width="12" height="12" transform="rotate(0,90,186)"/><path d="M 120 180v 12h 12v -6a 6 6, 0, 0, 0, -6 -6" transform="rotate(-90,126,186)"/><path d="M 132 180v 12h 12v -6a 6 6, 0, 0, 0, -6 -6" transform="rotate(90,138,186)"/><path d="M 156 180v 12h 12v -6a 6 6, 0, 0, 0, -6 -6" transform="rotate(-90,162,186)"/><rect x="168" y="180" width="12" height="12" transform="rotate(0,174,186)"/><rect x="180" y="180" width="12" height="12" transform="rotate(0,186,186)"/><rect x="192" y="180" width="12" height="12" transform="rotate(0,198,186)"/><rect x="228" y="180" width="12" height="12" transform="rotate(0,234,186)"/><rect x="240" y="180" width="12" height="12" transform="rotate(0,246,186)"/><path d="M 276 180v 12h 12v -6a 6 6, 0, 0, 0, -6 -6" transform="rotate(-90,282,186)"/><path d="M 0 192v 12h 12v -6a 6 6, 0, 0, 0, -6 -6" transform="rotate(-90,6,198)"/><path d="M 12 192v 12h 12v -6a 6 6, 0, 0, 0, -6 -6" transform="rotate(90,18,198)"/><path d="M 48 192v 12h 12v -6a 6 6, 0, 0, 0, -6 -6" transform="rotate(-90,54,198)"/><rect x="60" y="192" width="12" height="12" transform="rotate(0,66,198)"/><rect x="72" y="192" width="12" height="12" transform="rotate(0,78,198)"/><rect x="84" y="192" width="12" height="12" transform="rotate(0,90,198)"/><rect x="96" y="192" width="12" height="12" transform="rotate(0,102,198)"/><rect x="120" y="192" width="12" height="12" transform="rotate(0,126,198)"/><path d="M 144 192v 12h 12v -6a 6 6, 0, 0, 0, -6 -6" transform="rotate(-90,150,198)"/><rect x="192" y="192" width="12" height="12" transform="rotate(0,198,198)"/><rect x="204" y="192" width="12" height="12" transform="rotate(0,210,198)"/><rect x="216" y="192" width="12" height="12" transform="rotate(0,222,198)"/><rect x="228" y="192" width="12" height="12" transform="rotate(0,234,198)"/><rect x="240" y="192" width="12" height="12" transform="rotate(0,246,198)"/><rect x="252" y="192" width="12" height="12" transform="rotate(0,258,198)"/><rect x="264" y="192" width="12" height="12" transform="rotate(0,270,198)"/><rect x="276" y="192" width="12" height="12" transform="rotate(0,282,198)"/><rect x="288" y="192" width="12" height="12" transform="rotate(0,294,198)"/><rect x="96" y="204" width="12" height="12" transform="rotate(0,102,210)"/><rect x="120" y="204" width="12" height="12" transform="rotate(0,126,210)"/><rect x="144" y="204" width="12" height="12" transform="rotate(0,150,210)"/><rect x="156" y="204" width="12" height="12" transform="rotate(0,162,210)"/><path d="M 168 204v 12h 12v -6a 6 6, 0, 0, 0, -6 -6" transform="rotate(90,174,210)"/><rect x="192" y="204" width="12" height="12" transform="rotate(0,198,210)"/><rect x="240" y="204" width="12" height="12" transform="rotate(0,246,210)"/><rect x="276" y="204" width="12" height="12" transform="rotate(0,282,210)"/><rect x="288" y="204" width="12" height="12" transform="rotate(0,294,210)"/><path d="M 96 216v 12h 12v -6a 6 6, 0, 0, 0, -6 -6" transform="rotate(90,102,222)"/><rect x="120" y="216" width="12" height="12" transform="rotate(0,126,222)"/><rect x="132" y="216" width="12" height="12" transform="rotate(0,138,222)"/><rect x="144" y="216" width="12" height="12" transform="rotate(0,150,222)"/><path d="M 180 216v 12h 12v -6a 6 6, 0, 0, 0, -6 -6" transform="rotate(-90,186,222)"/><rect x="192" y="216" width="12" height="12" transform="rotate(0,198,222)"/><path d="M 216 216v 6a 6 6, 0, 0, 0, 6 6h 6v -6a 6 6, 0, 0, 0, -6 -6" transform="rotate(90,222,222)"/><rect x="240" y="216" width="12" height="12" transform="rotate(0,246,222)"/><path d="M 264 216v 12h 12v -6a 6 6, 0, 0, 0, -6 -6" transform="rotate(-90,270,222)"/><rect x="276" y="216" width="12" height="12" transform="rotate(0,282,222)"/><path d="M 288 216v 12h 12v -6a 6 6, 0, 0, 0, -6 -6" transform="rotate(90,294,222)"/><rect x="144" y="228" width="12" height="12" transform="rotate(0,150,234)"/><path d="M 168 228v 12h 12v -6a 6 6, 0, 0, 0, -6 -6" transform="rotate(-90,174,234)"/><rect x="192" y="228" width="12" height="12" transform="rotate(0,198,234)"/><rect x="240" y="228" width="12" height="12" transform="rotate(0,246,234)"/><rect x="264" y="228" width="12" height="12" transform="rotate(0,270,234)"/><rect x="276" y="228" width="12" height="12" transform="rotate(0,282,234)"/><path d="M 120 240v 12h 12v -6a 6 6, 0, 0, 0, -6 -6" transform="rotate(-90,126,246)"/><rect x="144" y="240" width="12" height="12" transform="rotate(0,150,246)"/><rect x="156" y="240" width="12" height="12" transform="rotate(0,162,246)"/><path d="M 168 240v 12h 12v -6a 6 6, 0, 0, 0, -6 -6" transform="rotate(90,174,246)"/><rect x="192" y="240" width="12" height="12" transform="rotate(0,198,246)"/><rect x="204" y="240" width="12" height="12" transform="rotate(0,210,246)"/><rect x="216" y="240" width="12" height="12" transform="rotate(0,222,246)"/><rect x="228" y="240" width="12" height="12" transform="rotate(0,234,246)"/><rect x="240" y="240" width="12" height="12" transform="rotate(0,246,246)"/><path d="M 276 240v 12h 12v -6a 6 6, 0, 0, 0, -6 -6" transform="rotate(90,282,246)"/><path d="M 96 252v 6a 6 6, 0, 0, 0, 6 6h 6v -6a 6 6, 0, 0, 0, -6 -6" transform="rotate(90,102,258)"/><rect x="120" y="252" width="12" height="12" transform="rotate(0,126,258)"/><path d="M 132 252v 12h 12v -6a 6 6, 0, 0, 0, -6 -6" transform="rotate(90,138,258)"/><rect x="228" y="252" width="12" height="12" transform="rotate(0,234,258)"/><rect x="240" y="252" width="12" height="12" transform="rotate(0,246,258)"/><path d="M 264 252v 12h 12v -6a 6 6, 0, 0, 0, -6 -6" transform="rotate(-90,270,258)"/><rect x="120" y="264" width="12" height="12" transform="rotate(0,126,270)"/><rect x="240" y="264" width="12" height="12" transform="rotate(0,246,270)"/><rect x="252" y="264" width="12" height="12" transform="rotate(0,258,270)"/><path d="M 264 264v 12h 12v -6a 6 6, 0, 0, 0, -6 -6" transform="rotate(90,270,270)"/><path d="M 288 264v 6a 6 6, 0, 0, 0, 6 6h 6v -6a 6 6, 0, 0, 0, -6 -6" transform="rotate(90,294,270)"/><path d="M 96 276v 12h 12v -6a 6 6, 0, 0, 0, -6 -6" transform="rotate(-90,102,282)"/><rect x="108" y="276" width="12" height="12" transform="rotate(0,114,282)"/><rect x="120" y="276" width="12" height="12" transform="rotate(0,126,282)"/><path d="M 144 276v 12h 12v -6a 6 6, 0, 0, 0, -6 -6" transform="rotate(-90,150,282)"/><rect x="156" y="276" width="12" height="12" transform="rotate(0,162,282)"/><rect x="168" y="276" width="12" height="12" transform="rotate(0,174,282)"/><rect x="180" y="276" width="12" height="12" transform="rotate(0,186,282)"/><rect x="192" y="276" width="12" height="12" transform="rotate(0,198,282)"/><rect x="204" y="276" width="12" height="12" transform="rotate(0,210,282)"/><path d="M 228 276v 6a 6 6, 0, 0, 0, 6 6h 6v -6a 6 6, 0, 0, 0, -6 -6" transform="rotate(90,234,282)"/><rect x="96" y="288" width="12" height="12" transform="rotate(0,102,294)"/><rect x="108" y="288" width="12" height="12" transform="rotate(0,114,294)"/><path d="M 120 288v 12h 12v -6a 6 6, 0, 0, 0, -6 -6" transform="rotate(90,126,294)"/><path d="M 156 288v 12h 12v -6a 6 6, 0, 0, 0, -6 -6" transform="rotate(90,162,294)"/><rect x="180" y="288" width="12" height="12" transform="rotate(0,186,294)"/><rect x="192" y="288" width="12" height="12" transform="rotate(0,198,294)"/><path d="M 204 288v 12h 12v -6a 6 6, 0, 0, 0, -6 -6" transform="rotate(90,210,294)"/><path d="M 240 288v 12h 12v -6a 6 6, 0, 0, 0, -6 -6" transform="rotate(-90,246,294)"/><path d="M 252 288v 12h 12v -6a 6 6, 0, 0, 0, -6 -6" transform="rotate(90,258,294)"/><path d="M 276 288v 12h 12v -6a 6 6, 0, 0, 0, -6 -6" transform="rotate(-90,282,294)"/><path d="M 288 288v 12h 12v -6a 6 6, 0, 0, 0, -6 -6" transform="rotate(90,294,294)"/></clipPath><clipPath id="clip-path-corners-square-color-0-0-7"><path d="M 0 0v 12h 12v -6a 6 6, 0, 0, 0, -6 -6" transform="rotate(-90,6,6)"/><rect x="12" y="0" width="12" height="12" transform="rotate(0,18,6)"/><rect x="24" y="0" width="12" height="12" transform="rotate(0,30,6)"/><rect x="36" y="0" width="12" height="12" transform="rotate(0,42,6)"/><rect x="48" y="0" width="12" height="12" transform="rotate(0,54,6)"/><rect x="60" y="0" width="12" height="12" transform="rotate(0,66,6)"/><rect x="72" y="0" width="12" height="12" transform="rotate(0,78,6)"/><rect x="0" y="12" width="12" height="12" transform="rotate(0,6,18)"/><rect x="72" y="12" width="12" height="12" transform="rotate(0,78,18)"/><rect x="0" y="24" width="12" height="12" transform="rotate(0,6,30)"/><rect x="72" y="24" width="12" height="12" transform="rotate(0,78,30)"/><rect x="0" y="36" width="12" height="12" transform="rotate(0,6,42)"/><rect x="72" y="36" width="12" height="12" transform="rotate(0,78,42)"/><rect x="0" y="48" width="12" height="12" transform="rotate(0,6,54)"/><rect x="72" y="48" width="12" height="12" transform="rotate(0,78,54)"/><rect x="0" y="60" width="12" height="12" transform="rotate(0,6,66)"/><rect x="72" y="60" width="12" height="12" transform="rotate(0,78,66)"/><rect x="0" y="72" width="12" height="12" transform="rotate(0,6,78)"/><rect x="12" y="72" width="12" height="12" transform="rotate(0,18,78)"/><rect x="24" y="72" width="12" height="12" transform="rotate(0,30,78)"/><rect x="36" y="72" width="12" height="12" transform="rotate(0,42,78)"/><rect x="48" y="72" width="12" height="12" transform="rotate(0,54,78)"/><rect x="60" y="72" width="12" height="12" transform="rotate(0,66,78)"/><path d="M 72 72v 12h 12v -6a 6 6, 0, 0, 0, -6 -6" transform="rotate(90,78,78)"/></clipPath><clipPath id="clip-path-corners-dot-color-0-0-7"><rect x="24" y="24" width="36" height="36" transform="rotate(0,42,42)"/></clipPath><clipPath id="clip-path-corners-square-color-1-0-7"><path d="M 216 0v 12h 12v -6a 6 6, 0, 0, 0, -6 -6" transform="rotate(-90,222,6)"/><rect x="228" y="0" width="12" height="12" transform="rotate(0,234,6)"/><rect x="240" y="0" width="12" height="12" transform="rotate(0,246,6)"/><rect x="252" y="0" width="12" height="12" transform="rotate(0,258,6)"/><rect x="264" y="0" width="12" height="12" transform="rotate(0,270,6)"/><rect x="276" y="0" width="12" height="12" transform="rotate(0,282,6)"/><rect x="288" y="0" width="12" height="12" transform="rotate(0,294,6)"/><rect x="216" y="12" width="12" height="12" transform="rotate(0,222,18)"/><rect x="288" y="12" width="12" height="12" transform="rotate(0,294,18)"/><rect x="216" y="24" width="12" height="12" transform="rotate(0,222,30)"/><rect x="288" y="24" width="12" height="12" transform="rotate(0,294,30)"/><rect x="216" y="36" width="12" height="12" transform="rotate(0,222,42)"/><rect x="288" y="36" width="12" height="12" transform="rotate(0,294,42)"/><rect x="216" y="48" width="12" height="12" transform="rotate(0,222,54)"/><rect x="288" y="48" width="12" height="12" transform="rotate(0,294,54)"/><rect x="216" y="60" width="12" height="12" transform="rotate(0,222,66)"/><rect x="288" y="60" width="12" height="12" transform="rotate(0,294,66)"/><rect x="216" y="72" width="12" height="12" transform="rotate(0,222,78)"/><rect x="228" y="72" width="12" height="12" transform="rotate(0,234,78)"/><rect x="240" y="72" width="12" height="12" transform="rotate(0,246,78)"/><rect x="252" y="72" width="12" height="12" transform="rotate(0,258,78)"/><rect x="264" y="72" width="12" height="12" transform="rotate(0,270,78)"/><rect x="276" y="72" width="12" height="12" transform="rotate(0,282,78)"/><path d="M 288 72v 12h 12v -6a 6 6, 0, 0, 0, -6 -6" transform="rotate(90,294,78)"/></clipPath><clipPath id="clip-path-corners-dot-color-1-0-7"><rect x="240" y="24" width="36" height="36" transform="rotate(90,258,42)"/></clipPath><clipPath id="clip-path-corners-square-color-0-1-7"><path d="M 0 216v 12h 12v -6a 6 6, 0, 0, 0, -6 -6" transform="rotate(-90,6,222)"/><rect x="12" y="216" width="12" height="12" transform="rotate(0,18,222)"/><rect x="24" y="216" width="12" height="12" transform="rotate(0,30,222)"/><rect x="36" y="216" width="12" height="12" transform="rotate(0,42,222)"/><rect x="48" y="216" width="12" height="12" transform="rotate(0,54,222)"/><rect x="60" y="216" width="12" height="12" transform="rotate(0,66,222)"/><rect x="72" y="216" width="12" height="12" transform="rotate(0,78,222)"/><rect x="0" y="228" width="12" height="12" transform="rotate(0,6,234)"/><rect x="72" y="228" width="12" height="12" transform="rotate(0,78,234)"/><rect x="0" y="240" width="12" height="12" transform="rotate(0,6,246)"/><rect x="72" y="240" width="12" height="12" transform="rotate(0,78,246)"/><rect x="0" y="252" width="12" height="12" transform="rotate(0,6,258)"/><rect x="72" y="252" width="12" height="12" transform="rotate(0,78,258)"/><rect x="0" y="264" width="12" height="12" transform="rotate(0,6,270)"/><rect x="72" y="264" width="12" height="12" transform="rotate(0,78,270)"/><rect x="0" y="276" width="12" height="12" transform="rotate(0,6,282)"/><rect x="72" y="276" width="12" height="12" transform="rotate(0,78,282)"/><rect x="0" y="288" width="12" height="12" transform="rotate(0,6,294)"/><rect x="12" y="288" width="12" height="12" transform="rotate(0,18,294)"/><rect x="24" y="288" width="12" height="12" transform="rotate(0,30,294)"/><rect x="36" y="288" width="12" height="12" transform="rotate(0,42,294)"/><rect x="48" y="288" width="12" height="12" transform="rotate(0,54,294)"/><rect x="60" y="288" width="12" height="12" transform="rotate(0,66,294)"/><path d="M 72 288v 12h 12v -6a 6 6, 0, 0, 0, -6 -6" transform="rotate(90,78,294)"/></clipPath><clipPath id="clip-path-corners-dot-color-0-1-7"><rect x="24" y="240" width="36" height="36" transform="rotate(-90,42,258)"/></clipPath></defs><rect x="0" y="0" height="300" width="300" clip-path="url('#clip-path-background-color-7')" fill="#ffffff"/><rect x="0" y="0" height="300" width="300" clip-path="url('#clip-path-dot-color-7')" fill="#000000"/><rect x="0" y="0" height="84" width="84" clip-path="url('#clip-path-corners-square-color-0-0-7')" fill="#000000"/><rect x="24" y="24" height="36" width="36" clip-path="url('#clip-path-corners-dot-color-0-0-7')" fill="#000000"/><rect x="216" y="0" height="84" width="84" clip-path="url('#clip-path-corners-square-color-1-0-7')" fill="#000000"/><rect x="240" y="24" height="36" width="36" clip-path="url('#clip-path-corners-dot-color-1-0-7')" fill="#000000"/><rect x="0" y="216" height="84" width="84" clip-path="url('#clip-path-corners-square-color-0-1-7')" fill="#000000"/><rect x="24" y="240" height="36" width="36" clip-path="url('#clip-path-corners-dot-color-0-1-7')" fill="#000000"/></svg>